<svg width="64" height="64" viewBox="0 0 64 64" fill="none" xmlns="http://www.w3.org/2000/svg">
  <!-- Background circle -->
  <circle cx="32" cy="32" r="30" fill="#2563EB"/>

  <!-- Brain outline -->
  <path d="M32 12C25.5 12 20 16.5 20 24C20 26 20.5 27.8 21.5 29.3C19.5 30.5 18 32.8 18 35.5C18 37.5 18.8 39.3 20.2 40.5C20.1 41 20 41.5 20 42C20 45.3 22.7 48 26 48C26.7 48 27.3 47.9 27.9 47.7C29.3 49.5 31.5 50.5 34 50.5C36.5 50.5 38.7 49.5 40.1 47.7C40.7 47.9 41.3 48 42 48C45.3 48 48 45.3 48 42C48 41.5 47.9 41 47.8 40.5C49.2 39.3 50 37.5 50 35.5C50 32.8 48.5 30.5 46.5 29.3C47.5 27.8 48 26 48 24C48 16.5 42.5 12 36 12C34.8 12 33.7 12.2 32.6 12.5C32.4 12.2 32.2 12.1 32 12Z" stroke="white" stroke-width="2.5" fill="none" stroke-linecap="round" stroke-linejoin="round"/>

  <!-- Brain details/folds -->
  <path d="M28 20C26 22 25 24.5 25 27" stroke="white" stroke-width="2" fill="none" stroke-linecap="round"/>
  <path d="M36 20C38 22 39 24.5 39 27" stroke="white" stroke-width="2" fill="none" stroke-linecap="round"/>
  <path d="M24 32C25 34 26.5 35.5 28.5 36" stroke="white" stroke-width="2" fill="none" stroke-linecap="round"/>
  <path d="M40 32C39 34 37.5 35.5 35.5 36" stroke="white" stroke-width="2" fill="none" stroke-linecap="round"/>

  <!-- Center line dividing hemispheres -->
  <line x1="32" y1="16" x2="32" y2="44" stroke="white" stroke-width="1.5" stroke-linecap="round" stroke-dasharray="3 3"/>

  <!-- Scan lines effect -->
  <line x1="16" y1="28" x2="22" y2="28" stroke="white" stroke-width="1.5" opacity="0.6" stroke-linecap="round"/>
  <line x1="42" y1="28" x2="48" y2="28" stroke="white" stroke-width="1.5" opacity="0.6" stroke-linecap="round"/>
  <line x1="16" y1="36" x2="22" y2="36" stroke="white" stroke-width="1.5" opacity="0.6" stroke-linecap="round"/>
  <line x1="42" y1="36" x2="48" y2="36" stroke="white" stroke-width="1.5" opacity="0.6" stroke-linecap="round"/>
</svg>
